<svg width="20" height="29" viewBox="0 0 20 29" fill="none" xmlns="http://www.w3.org/2000/svg">
<path d="M10 0C4.47143 0 0 4.47143 0 10C0 17.5 10 28.5714 10 28.5714C10 28.5714 20 17.5 20 10C20 4.47143 15.5286 0 10 0ZM10 13.5714C9.0528 13.5714 8.14439 13.1952 7.47462 12.5254C6.80485 11.8556 6.42857 10.9472 6.42857 10C6.42857 9.0528 6.80485 8.14439 7.47462 7.47462C8.14439 6.80485 9.0528 6.42857 10 6.42857C10.9472 6.42857 11.8556 6.80485 12.5254 7.47462C13.1952 8.14439 13.5714 9.0528 13.5714 10C13.5714 10.9472 13.1952 11.8556 12.5254 12.5254C11.8556 13.1952 10.9472 13.5714 10 13.5714Z" fill="black"/>
</svg>
