<svg aria-hidden="true" style="position:absolute;width:0;height:0;overflow:hidden" xmlns="http://www.w3.org/2000/svg">
  <defs>
    <symbol id="icon-mail" viewBox="0 0 40 32">
      <path d="M36 0H4C1.8 0 .02 1.8.02 4L0 28c0 2.2 1.8 4 4 4h32c2.2 0 4-1.8 4-4V4c0-2.2-1.8-4-4-4zm0 8L20 18 4 8V4l16 10L36 4v4z"/>
    </symbol>
    <symbol id="icon-phone" viewBox="0 0 32 32">
      <path d="M6.436 13.849c2.56 5.031 6.684 9.138 11.716 11.716l3.911-3.911c.48-.48 1.191-.64 1.813-.427a20.271 20.271 0 0 0 6.347 1.013c.978 0 1.778.8 1.778 1.778v6.204c0 .978-.8 1.778-1.778 1.778C13.53 32 .001 18.471.001 1.778.001.8.801 0 1.779 0h6.222c.978 0 1.778.8 1.778 1.778 0 2.222.356 4.356 1.013 6.347a1.784 1.784 0 0 1-.444 1.813l-3.911 3.911z"/>
    </symbol>
    <symbol id="icon-location" viewBox="0 0 22 32">
      <path d="M11.034 0A11.026 11.026 0 0 0 0 11.034c0 8.276 11.034 20.493 11.034 20.493S22.068 19.31 22.068 11.034A11.026 11.026 0 0 0 11.034 0zm0 14.975a3.942 3.942 0 1 1 0-7.884 3.942 3.942 0 0 1 0 7.884z"/>
    </symbol>
  </defs>
</svg>
